<!DOCTYPE svg PUBLIC "-//W3C//DTD SVG 20010904//EN" "http://www.w3.org/TR/2001/REC-SVG-20010904/DTD/svg10.dtd">
<svg version="1.0" xmlns="http://www.w3.org/2000/svg" width="200px" height="69px" viewBox="0 0 2000 690" preserveAspectRatio="xMidYMid meet">
<g id="layer101" fill="#015101" stroke="none">
 <path d="M485 518 c-264 -94 -482 -173 -484 -175 -2 -1 -2 -5 1 -8 9 -9 972 -335 990 -335 25 0 1008 333 1008 341 0 10 -987 349 -1012 348 -13 0 -239 -77 -503 -171z"/>
 </g>
<g id="layer102" fill="#fcfdfc" stroke="none">
 <path d="M1243 525 c-34 -15 -58 -45 -68 -87 -6 -24 -4 -27 22 -30 23 -2 31 3 43 27 27 54 115 43 108 -14 -2 -21 -14 -29 -66 -49 -47 -18 -69 -33 -83 -56 -48 -78 2 -156 101 -156 33 0 48 6 71 29 17 17 29 40 29 55 0 22 -5 26 -28 26 -19 0 -30 -7 -37 -22 -13 -29 -65 -37 -85 -13 -21 25 -2 46 66 72 75 29 94 52 94 112 0 55 -20 88 -66 107 -41 17 -60 17 -101 -1z"/>
 <path d="M580 523 c0 -4 26 -87 57 -186 l57 -178 30 3 c31 3 32 5 88 173 31 94 57 176 57 183 1 7 -11 12 -29 12 -25 0 -31 -5 -41 -40 l-12 -40 -62 0 -62 0 -12 40 c-10 35 -16 40 -41 40 -17 0 -30 -3 -30 -7z m179 -150 c0 -10 -8 -40 -18 -68 l-18 -50 -16 50 c-26 74 -23 85 18 85 27 0 35 -4 34 -17z"/>
 <path d="M910 345 l0 -185 63 1 c88 2 117 10 140 41 37 50 21 154 -29 177 -14 6 -45 11 -69 11 l-45 0 0 70 0 70 -30 0 -30 0 0 -185z m148 -27 c7 -7 12 -24 12 -38 0 -36 -17 -50 -62 -50 l-38 0 0 50 0 50 38 0 c21 0 43 -5 50 -12z"/>
 </g>

</svg>